<svg xmlns="http://www.w3.org/2000/svg" viewBox="0 0 512 512"><circle cx="223.798" cy="215.729" r="16.453" transform="rotate(-67.5 223.798 215.73)"/><circle cx="130.829" cy="215.729" r="16.453"/><circle cx="316.767" cy="215.729" r="16.453"/><circle cx="223.798" cy="293.432" r="16.453" transform="rotate(-67.5 223.798 293.432)"/><circle cx="130.829" cy="293.432" r="16.453"/><path d="M402.688 254.427V116.035A25.966 25.966 0 0 0 376.75 90.1h-51.13V62.394h-13V90.1H134.475V62.394h-13V90.1h-51.13a25.966 25.966 0 0 0-25.937 25.936v31.884a6.476 6.476 0 0 0 .501 2.503v197.155a25.965 25.965 0 0 0 25.937 25.937h198.013a100.916 100.916 0 1 0 133.829-119.087zM70.846 360.514a12.952 12.952 0 0 1-12.937-12.937V154.42h331.779v96.01a100.911 100.911 0 0 0-123.225 110.085zm351.941 11.882a1.5 1.5 0 0 1-1.5 1.5h-29.404V403.3a1.5 1.5 0 0 1-1.5 1.5h-47.408a1.5 1.5 0 0 1-1.5-1.5v-29.404H312.07a1.488 1.488 0 0 1-.992-.383 1.542 1.542 0 0 1-.208-.226l-.002-.002a1.532 1.532 0 0 1-.149-.248l-.013-.023a1.47 1.47 0 0 1-.084-.248c-.005-.018-.013-.035-.017-.053a1.475 1.475 0 0 1-.035-.316v-47.409a1.5 1.5 0 0 1 1.5-1.5h29.404v-29.403a1.5 1.5 0 0 1 1.5-1.5h47.408a1.5 1.5 0 0 1 1.5 1.5v29.403h29.404a1.5 1.5 0 0 1 1.5 1.5z"/></svg>