<svg width="24" height="24" viewBox="0 0 24 24" fill="none" xmlns="http://www.w3.org/2000/svg">
<path fill-rule="evenodd" clip-rule="evenodd" d="M19.1999 4.8H4.79986C4.56116 4.8 4.33225 4.89482 4.16346 5.0636C3.99468 5.23239 3.89986 5.46131 3.89986 5.7V18.3C3.89986 18.5387 3.99468 18.7676 4.16346 18.9364C4.33225 19.1052 4.56116 19.2 4.79986 19.2H19.1999C19.4386 19.2 19.6675 19.1052 19.8363 18.9364C20.0051 18.7676 20.0999 18.5387 20.0999 18.3V5.7C20.0999 5.46131 20.0051 5.23239 19.8363 5.0636C19.6675 4.89482 19.4386 4.8 19.1999 4.8ZM4.79986 3C4.08377 3 3.39702 3.28446 2.89067 3.79081C2.38432 4.29716 2.09985 4.98392 2.09985 5.7V18.3C2.09985 19.0161 2.38432 19.7028 2.89067 20.2092C3.39702 20.7155 4.08377 21 4.79986 21H19.1999C19.916 21 20.6027 20.7155 21.1091 20.2092C21.6154 19.7028 21.8999 19.0161 21.8999 18.3V5.7C21.8999 4.98392 21.6154 4.29716 21.1091 3.79081C20.6027 3.28446 19.916 3 19.1999 3H4.79986ZM6.59986 7.5H8.39987V9.3H6.59986V7.5ZM11.0999 7.5C10.8612 7.5 10.6323 7.59482 10.4635 7.7636C10.2947 7.93239 10.1999 8.1613 10.1999 8.4C10.1999 8.63869 10.2947 8.86761 10.4635 9.0364C10.6323 9.20518 10.8612 9.3 11.0999 9.3H16.4999C16.7386 9.3 16.9675 9.20518 17.1363 9.0364C17.3051 8.86761 17.3999 8.63869 17.3999 8.4C17.3999 8.1613 17.3051 7.93239 17.1363 7.7636C16.9675 7.59482 16.7386 7.5 16.4999 7.5H11.0999ZM8.39987 11.1H6.59986V12.9H8.39987V11.1ZM10.1999 12C10.1999 11.7613 10.2947 11.5324 10.4635 11.3636C10.6323 11.1948 10.8612 11.1 11.0999 11.1H16.4999C16.7386 11.1 16.9675 11.1948 17.1363 11.3636C17.3051 11.5324 17.3999 11.7613 17.3999 12C17.3999 12.2387 17.3051 12.4676 17.1363 12.6364C16.9675 12.8052 16.7386 12.9 16.4999 12.9H11.0999C10.8612 12.9 10.6323 12.8052 10.4635 12.6364C10.2947 12.4676 10.1999 12.2387 10.1999 12ZM8.39987 14.7H6.59986V16.5H8.39987V14.7ZM10.1999 15.6C10.1999 15.3613 10.2947 15.1324 10.4635 14.9636C10.6323 14.7948 10.8612 14.7 11.0999 14.7H16.4999C16.7386 14.7 16.9675 14.7948 17.1363 14.9636C17.3051 15.1324 17.3999 15.3613 17.3999 15.6C17.3999 15.8387 17.3051 16.0676 17.1363 16.2364C16.9675 16.4052 16.7386 16.5 16.4999 16.5H11.0999C10.8612 16.5 10.6323 16.4052 10.4635 16.2364C10.2947 16.0676 10.1999 15.8387 10.1999 15.6Z" fill="black"/>
</svg>
