<svg width="20" height="21" viewBox="0 0 20 21" fill="none" xmlns="http://www.w3.org/2000/svg">
<path d="M16.6667 10.5H8.75001M15 13L17.5 10.5L15 8.00001M10.8333 6.33334V5.50001C10.8333 5.05798 10.6577 4.63406 10.3452 4.3215C10.0326 4.00894 9.6087 3.83334 9.16668 3.83334H5.00001C4.55798 3.83334 4.13406 4.00894 3.8215 4.3215C3.50894 4.63406 3.33334 5.05798 3.33334 5.50001V15.5C3.33334 15.942 3.50894 16.366 3.8215 16.6785C4.13406 16.9911 4.55798 17.1667 5.00001 17.1667H9.16668C9.6087 17.1667 10.0326 16.9911 10.3452 16.6785C10.6577 16.366 10.8333 15.942 10.8333 15.5V14.6667" stroke="black" stroke-width="2" stroke-linecap="round" stroke-linejoin="round"/>
</svg>
