<svg width="24" height="24" viewBox="0 0 24 24" fill="none" xmlns="http://www.w3.org/2000/svg">
<path d="M4.00049 18C4.00049 16.9391 4.42192 15.9217 5.17206 15.1716C5.92221 14.4214 6.93962 14 8.00049 14H16.0005C17.0614 14 18.0788 14.4214 18.8289 15.1716C19.5791 15.9217 20.0005 16.9391 20.0005 18C20.0005 18.5304 19.7898 19.0391 19.4147 19.4142C19.0396 19.7893 18.5309 20 18.0005 20H6.00049C5.47006 20 4.96135 19.7893 4.58627 19.4142C4.2112 19.0391 4.00049 18.5304 4.00049 18Z" stroke="black" stroke-width="2" stroke-linejoin="round"/>
<path d="M12.0012 10C13.6581 10 15.0012 8.65685 15.0012 7C15.0012 5.34315 13.6581 4 12.0012 4C10.3444 4 9.00122 5.34315 9.00122 7C9.00122 8.65685 10.3444 10 12.0012 10Z" stroke="black" stroke-width="2"/>
</svg>
